<?xml version="1.0" standalone="no"?>
<!DOCTYPE svg PUBLIC "-//W3C//DTD SVG 20010904//EN"
 "http://www.w3.org/TR/2001/REC-SVG-20010904/DTD/svg10.dtd">
<svg version="1.0" xmlns="http://www.w3.org/2000/svg"
 width="16.000000pt" height="16.000000pt" viewBox="0 0 16.000000 16.000000"
 preserveAspectRatio="xMidYMid meet">
<metadata>
Created by potrace 1.11, written by Peter Selinger 2001-2013
</metadata>
<g transform="translate(0.000000,16.000000) scale(0.002286,-0.002286)"
fill="#000000" stroke="none">
<path d="M5542 6559 c-10 -4 -63 -38 -119 -77 -106 -73 -360 -232 -489 -304
-41 -24 -94 -54 -117 -67 -68 -38 -515 -264 -602 -303 -607 -275 -1157 -463
-1746 -598 -94 -21 -173 -40 -174 -42 -8 -7 -50 -286 -60 -393 -3 -33 -8 -71
-10 -85 -4 -23 -8 -81 -21 -280 -7 -115 -7 -541 0 -675 8 -149 20 -295 31
-385 2 -19 7 -57 10 -85 3 -27 10 -75 15 -105 6 -30 12 -73 15 -95 3 -22 7
-49 9 -60 3 -11 5 -25 5 -31 1 -7 36 -20 79 -30 42 -10 79 -18 82 -19 3 -1 21
-5 40 -9 110 -24 217 -52 310 -78 58 -17 121 -34 140 -38 19 -5 87 -24 150
-44 636 -200 1220 -453 1815 -786 122 -68 349 -208 484 -298 l154 -103 321 3
321 3 70 35 c225 111 429 462 569 980 27 99 72 304 82 368 3 20 7 48 10 62 17
100 28 181 50 363 34 294 39 1002 9 1262 -2 17 -6 63 -10 103 -3 40 -8 78 -10
85 -2 7 -6 40 -10 74 -3 35 -17 129 -30 210 -133 791 -411 1338 -724 1430 -45
13 -111 16 -344 17 -159 1 -296 -2 -305 -5z m473 -422 c160 -124 314 -440 414
-849 56 -226 88 -412 106 -613 3 -33 7 -76 10 -95 25 -200 26 -810 0 -1030 -2
-19 -6 -65 -10 -102 -3 -37 -7 -75 -9 -85 -2 -10 -7 -45 -11 -78 -4 -32 -8
-66 -10 -75 -1 -8 -6 -35 -10 -60 -4 -25 -9 -52 -10 -60 -97 -485 -226 -821
-389 -1015 -28 -33 -58 -66 -66 -73 -33 -27 -91 -52 -123 -52 -64 0 -156 79
-247 213 -69 103 -175 354 -230 542 -26 91 -42 151 -46 175 -3 14 -14 63 -24
110 -10 47 -24 117 -30 155 -6 39 -13 81 -15 95 -8 51 -24 187 -31 255 -3 39
-8 84 -10 100 -6 53 -17 347 -17 465 0 128 11 443 18 480 2 14 6 59 10 101 3
42 8 87 10 99 2 12 7 48 11 79 8 70 12 101 17 126 3 11 10 54 17 95 6 41 19
102 27 135 8 33 17 71 19 85 3 14 19 74 36 134 104 371 255 654 403 756 69 47
117 44 190 -13z"/>
<path d="M5849 4839 c-70 -76 -141 -268 -165 -449 -16 -113 -19 -167 -19 -325
0 -245 14 -355 68 -540 41 -143 127 -275 179 -275 27 0 91 67 122 128 78 153
127 408 129 668 1 113 -11 289 -26 364 -3 14 -8 43 -12 65 -20 115 -90 294
-138 355 -19 25 -60 50 -81 50 -10 0 -36 -18 -57 -41z"/>
<path d="M1778 5085 c-2 -3 -29 -7 -59 -10 -30 -3 -65 -8 -79 -10 -26 -4 -75
-9 -190 -20 -36 -3 -81 -8 -100 -10 -94 -11 -317 -18 -627 -20 -189 -1 -345
-4 -347 -6 -3 -4 -92 -155 -126 -214 -43 -74 -181 -311 -190 -325 -5 -8 -21
-35 -35 -59 l-25 -44 0 -301 0 -301 82 -140 c44 -77 95 -165 113 -195 18 -30
65 -111 105 -180 40 -69 74 -127 75 -128 2 -2 180 -6 397 -8 216 -2 418 -6
448 -8 30 -2 96 -7 145 -11 50 -3 102 -8 116 -11 14 -2 50 -6 80 -9 30 -3 68
-7 84 -10 153 -19 155 -19 150 6 -3 12 -9 59 -15 103 -6 45 -12 95 -15 111 -2
17 -7 64 -10 105 -3 41 -8 89 -10 105 -25 197 -25 900 0 1137 5 48 12 125 20
209 3 31 8 67 10 79 2 12 7 48 11 79 3 31 8 58 9 61 5 8 -10 31 -17 25z"/>
<path d="M1647 2773 c-2 -1 4 -33 14 -70 9 -38 61 -239 114 -448 53 -209 115
-450 136 -535 22 -85 42 -163 44 -173 2 -10 7 -27 10 -37 3 -10 7 -27 9 -37 3
-14 57 -224 130 -508 16 -61 58 -233 62 -250 2 -11 15 -58 28 -104 26 -90 58
-133 113 -157 65 -28 101 -19 391 97 152 60 291 116 307 123 17 7 89 36 160
65 143 57 164 70 195 125 39 70 31 118 -43 257 -73 139 -119 225 -152 284 -12
22 -48 90 -80 150 -32 61 -66 124 -75 140 -10 17 -68 125 -130 240 -62 116
-127 237 -145 270 -18 33 -53 98 -78 145 -72 134 -121 224 -132 243 -10 15
-121 42 -335 80 -58 11 -314 59 -422 81 -65 12 -119 21 -121 19z"/>
</g>
</svg>
