<?xml version="1.0" encoding="utf-8"?>
<!-- Generator: Adobe Illustrator 19.1.0, SVG Export Plug-In . SVG Version: 6.00 Build 0)  -->
<svg version="1.1" id="Layer_1" xmlns="http://www.w3.org/2000/svg" xmlns:xlink="http://www.w3.org/1999/xlink" x="0px" y="0px"
	 viewBox="0 0 1224 792" style="enable-background:new 0 0 1224 792;" xml:space="preserve">
<style type="text/css">
	.st0{opacity:0.19;}
	.st1{fill:#010101;}
</style>
<g class="st0">
	<path class="st1" d="M718,495.6c-13.5,0-23.8-10.6-27-20.6H446.3c-3.3,0-6.3-2.2-6.3-5.5V234.1c0-3.3,3-6.1,6.3-6.1h294.3
		c3.3,0,5.4,2.8,5.4,6.1v230.3C746,479.3,734.6,495.6,718,495.6z M452,464h243.8c3.3,0,5.9,2.5,5.9,5.7c0,4.3,7.1,14.4,16.6,14.4
		c9.4,0,16.6-10.4,16.6-19.7V240H452V464z"/>
	<path class="st1" d="M716.9,497H441.1c-16.8,0-32.1-15.3-32.1-32V192.9c0-3.3,2.6-5.9,5.9-5.9h255.1c3.3,0,6.1,2.6,6.1,5.9v41.2
		c0,3.3-2.8,5.9-6.1,5.9H452v224h243.8c3.3,0,5.9,2.5,5.9,5.7c0,14.7,12.7,15.6,15.2,15.6c3.2,0,5.9,2.6,5.9,5.8
		C722.8,494.4,720.2,497,716.9,497L716.9,497C717,497,717,497,716.9,497C716.9,497,716.9,497,716.9,497z M421,199v266
		c0,10.2,9.9,20,20.1,20h253.1c-1.8-2-3.1-6-3.8-10H446.3c-3.3,0-6.3-2.2-6.3-5.5V234.1c0-3.3,3-6.1,6.3-6.1H664v-29H421z"/>
	<path class="st1" d="M701.3,267H485.5c-3.3,0-5.9-2.2-5.9-5.5s2.6-5.5,5.9-5.5h215.8c3.3,0,5.9,2.2,5.9,5.5S704.6,267,701.3,267z"
		/>
	<path class="st1" d="M701.3,297H485.5c-3.3,0-5.9-2.7-5.9-6s2.6-6,5.9-6h215.8c3.3,0,5.9,2.7,5.9,6S704.6,297,701.3,297z"/>
	<path class="st1" d="M701.3,417H485.5c-3.3,0-5.9-2.7-5.9-6s2.6-6,5.9-6h215.8c3.3,0,5.9,2.7,5.9,6S704.6,417,701.3,417z"/>
	<path class="st1" d="M701.3,444H485.5c-3.3,0-5.9-2.7-5.9-6s2.6-6,5.9-6h215.8c3.3,0,5.9,2.7,5.9,6S704.6,444,701.3,444z"/>
	<path class="st1" d="M701.3,326H593.4c-3.3,0-5.9-2.2-5.9-5.5s2.6-5.5,5.9-5.5h107.9c3.3,0,5.9,2.2,5.9,5.5S704.6,326,701.3,326z"
		/>
	<path class="st1" d="M701.3,352H593.4c-3.3,0-5.9-2.7-5.9-6s2.6-6,5.9-6h107.9c3.3,0,5.9,2.7,5.9,6S704.6,352,701.3,352z"/>
	<path class="st1" d="M701.3,379H593.4c-3.3,0-5.9-2.2-5.9-5.5s2.6-5.5,5.9-5.5h107.9c3.3,0,5.9,2.2,5.9,5.5S704.6,379,701.3,379z"
		/>
	<path class="st1" d="M556,374.1c0,3.3-2.6,5.9-5.9,5.9h-66.2c-3.3,0-5.9-2.6-5.9-5.9v-53.2c0-3.3,2.6-5.9,5.9-5.9h66.2
		c3.3,0,5.9,2.6,5.9,5.9V374.1z M489,368h55v-42h-55V368z"/>
</g>
</svg>
